<svg width="116" height="116" viewBox="0 0 116 116" fill="none" xmlns="http://www.w3.org/2000/svg">
<g clip-path="url(#clip0_1682_13282)">
<path d="M76.9435 39.5859C84.6956 47.4811 89.0377 58.1046 89.0349 69.1694C89.0321 80.2342 84.6847 90.8555 76.9285 98.7467C69.1724 106.638 58.6278 111.168 47.5647 111.362C36.5016 111.556 25.8047 107.398 17.7768 99.7834C17.6777 99.6892 17.577 99.5933 17.4779 99.4942C12.0348 94.1831 7.68753 87.855 4.68279 80.8688C4.31521 80.0165 3.96947 79.1529 3.64557 78.2782C3.57205 78.0811 3.50013 77.8845 3.42981 77.6884C3.41543 77.6469 3.39945 77.6069 3.38506 77.567C1.91787 73.4576 0.918028 69.1961 0.404431 64.8629C0.37886 64.6344 0.351691 64.4075 0.327718 64.1789C0.303746 63.9504 0.281372 63.7218 0.258997 63.4949C0.236623 63.268 0.220641 63.065 0.201462 62.8556C0.165237 62.4081 0.133272 61.9606 0.10557 61.5131C0.10557 61.4045 0.0927841 61.2958 0.0879895 61.1935C0.0677457 60.8216 0.0506996 60.4487 0.0368486 60.0748C0.0368486 59.9149 0.0256603 59.7391 0.0208657 59.5697C0.0128748 59.2709 0.00648101 58.9704 0.00488281 58.67C0.190155 69.7656 4.7375 80.3419 12.6627 88.1098C20.5878 95.8776 31.2532 100.212 42.3503 100.175C53.4474 100.138 64.0835 95.7319 71.9565 87.9111C79.8294 80.0903 84.3057 69.4837 84.4166 58.3871V58.3199C84.4166 58.1106 84.4166 57.9012 84.4166 57.6935V57.6327C84.4166 57.4457 84.4166 57.2587 84.4022 57.0734C84.4022 56.9695 84.3942 56.8656 84.3895 56.7633C84.3649 56.2412 84.3255 55.7234 84.2712 55.2099C84.2616 55.1076 84.2504 55.0037 84.236 54.9014C84.0799 53.5554 83.8181 52.2237 83.4529 50.9187C83.3426 50.5144 83.2196 50.1196 83.0885 49.7169C83.0566 49.6162 83.023 49.5171 82.9878 49.418C82.9527 49.3189 82.9287 49.247 82.8983 49.1623C82.7529 48.7532 82.5963 48.3456 82.4317 47.9429L82.3965 47.8598C82.3571 47.7618 82.3155 47.6643 82.2719 47.5673C82.2319 47.4714 82.1887 47.3739 82.1456 47.278C82.1024 47.1821 82.0609 47.0879 82.0161 46.992C81.9298 46.8002 81.8403 46.61 81.746 46.4214C80.8299 44.5436 79.6924 42.7821 78.3579 41.1745C78.2247 41.0137 78.0888 40.8538 77.9503 40.6951C77.8848 40.6184 77.8177 40.5353 77.749 40.4665C77.498 40.1597 77.22 39.8704 76.9435 39.5859Z" fill="url(#paint0_linear_1682_13282)"/>
<path d="M57.6259 84.4175C46.5293 84.3066 35.9227 79.8302 28.1019 71.9573C20.2811 64.0844 15.8753 53.4483 15.8381 42.3512C15.8009 31.2541 20.1354 20.5887 27.9032 12.6635C35.671 4.73836 46.2474 0.191013 57.343 0.00574141H57.4341C58.1427 -0.00278228 58.8501 0.00307786 59.5565 0.0233216L60.0616 0.0393045C60.4355 0.0520901 60.8084 0.0691362 61.1803 0.0904454L61.4999 0.108026L62.1552 0.146383L62.6235 0.181544L62.844 0.199124L63.4833 0.256659L64.1673 0.32538C64.3959 0.349353 64.6228 0.376524 64.8513 0.402095C69.1845 0.915692 73.446 1.91553 77.5554 3.38272L77.6768 3.42747L78.2666 3.64323C79.136 3.96287 79.9995 4.30861 80.8572 4.68045C87.2902 7.44739 93.1698 11.355 98.212 16.2146C90.1755 8.64512 79.4931 4.52552 68.4551 4.739C57.4171 4.95247 46.9021 9.48203 39.1642 17.3566C31.4264 25.2312 27.0817 35.8239 27.0615 46.864C27.0414 57.904 31.3474 68.5126 39.0565 76.4153C39.1428 76.5048 39.2307 76.5927 39.3202 76.6806C39.4097 76.7685 39.496 76.858 39.5855 76.9443C39.87 77.2214 40.1593 77.4877 40.4533 77.7434C41.0798 78.3028 41.726 78.8254 42.3919 79.3113C43.57 80.1783 44.8195 80.9439 46.1269 81.5999C46.3155 81.6957 46.5041 81.7884 46.6927 81.8763C46.7641 81.9115 46.836 81.9451 46.9084 81.977C46.958 82.001 47.0075 82.025 47.0571 82.0458C47.153 82.0905 47.2504 82.1337 47.3463 82.1752C47.4422 82.2168 47.5397 82.2615 47.6372 82.3015L47.9297 82.4245L48.2221 82.5428C48.3196 82.5827 48.4171 82.6211 48.5162 82.6579C51.4246 83.7794 54.5091 84.3751 57.6259 84.4175Z" fill="url(#paint1_linear_1682_13282)"/>
<path d="M75.5459 77.7499C75.8399 77.491 76.1292 77.2209 76.4137 76.9508C68.5265 84.7454 57.8889 89.1232 46.8001 89.138C35.7112 89.1529 25.0619 84.8036 17.1539 77.0301C9.24592 69.2567 4.71446 58.6836 4.53898 47.5962C4.36351 36.5087 8.55811 25.7975 16.2162 17.7778C16.3105 17.6787 16.4063 17.578 16.5054 17.4789C21.8165 12.0358 28.1446 7.6885 35.1308 4.68377C35.9831 4.31618 36.8467 3.97044 37.7214 3.64654C37.9185 3.57302 38.1151 3.50111 38.3112 3.43079L38.4326 3.38604C42.542 1.91885 46.8035 0.919004 51.1367 0.405407C51.3652 0.379836 51.5921 0.352668 51.8207 0.328695L52.5047 0.259974L53.144 0.202439L53.3645 0.184859L53.7577 0.154492C54.0006 0.13638 54.2435 0.120397 54.4865 0.106546L54.8061 0.088966C55.179 0.0687223 55.5519 0.0516762 55.9248 0.0378252L56.4299 0.0218423C56.7287 0.0138513 57.0292 0.00745757 57.3297 0.00585938C46.234 0.191131 35.6577 4.73847 27.8898 12.6636C20.122 20.5888 15.7876 31.2542 15.8247 42.3513C15.8619 53.4484 20.2677 64.0845 28.0885 71.9574C35.9093 79.8303 46.5159 84.3067 57.6125 84.4176H58.3605C61.4772 84.3758 64.5617 83.7805 67.4702 82.6596C67.5693 82.6228 67.6668 82.5844 67.7643 82.5445L68.0567 82.4262L68.3492 82.3032C68.4467 82.2632 68.5426 82.2201 68.6401 82.1769C68.7376 82.1338 68.8335 82.0922 68.9293 82.0475C68.9789 82.0267 69.0284 82.0027 69.078 81.9787C69.1275 81.9548 69.2218 81.9132 69.2937 81.878C69.4823 81.7901 69.6709 81.6974 69.8595 81.6015C71.1669 80.9456 72.4164 80.1799 73.5945 79.3129C74.1794 78.8868 74.7494 78.4313 75.3045 77.9465C75.394 77.8858 75.4707 77.8186 75.5459 77.7499Z" fill="url(#paint2_linear_1682_13282)"/>
<path d="M78.8937 37.1072C86.9391 41.6881 93.2553 48.7871 96.8695 57.3107C100.484 65.8343 101.195 75.3097 98.8949 84.2775C96.5945 93.2453 91.4096 101.208 84.1388 106.939C76.8679 112.671 67.9145 115.853 58.6574 115.996H58.5663C57.8578 116.004 57.1503 115.998 56.4439 115.978L55.9389 115.962C55.5649 115.949 55.192 115.932 54.8202 115.911L54.5005 115.893C54.053 115.867 53.6055 115.835 53.158 115.797L52.5188 115.74L51.8347 115.671C51.6062 115.647 51.3792 115.62 51.1507 115.594C46.8176 115.081 42.5561 114.081 38.4467 112.614L38.3252 112.569L37.7355 112.353C36.8661 112.034 36.0025 111.688 35.1448 111.316C28.7115 108.55 22.8318 104.642 17.79 99.7818C25.8317 107.32 36.5032 111.414 47.5234 111.188C58.5436 110.962 69.0381 106.434 76.7639 98.5719C84.4896 90.7101 88.8336 80.1381 88.8672 69.1156C88.9009 58.0932 84.6215 47.4948 76.9439 39.586C76.8576 39.4965 76.7697 39.4086 76.6802 39.3207C76.5907 39.2327 76.5044 39.1433 76.4149 39.0569C76.1304 38.7805 75.8412 38.5104 75.5471 38.2579C73.7544 36.6597 71.7507 35.3153 69.5922 34.2624C69.4037 34.1681 69.2135 34.0786 69.0217 33.9923C68.9258 33.9475 68.8315 33.9044 68.7356 33.8628C68.6397 33.8213 68.5422 33.7765 68.4463 33.7366L68.1539 33.6119L68.0708 33.5767C67.668 33.4169 67.2605 33.2571 66.8513 33.1101L66.5956 33.0206C66.4965 32.9854 66.3975 32.9519 66.2968 32.9199C65.9004 32.7888 65.4977 32.6658 65.0949 32.5555C63.79 32.1904 62.4583 31.9285 61.1122 31.7724C61.0099 31.758 60.9061 31.7468 60.8038 31.7372C60.2908 31.6813 59.7729 31.6429 59.2503 31.619L58.9467 31.6062H58.9387C58.7533 31.5982 58.5663 31.595 58.3793 31.5918C65.577 31.6425 72.641 33.5416 78.8937 37.1072Z" fill="url(#paint3_linear_1682_13282)"/>
<path d="M40.4547 38.2495C40.1607 38.5084 39.8714 38.7785 39.5869 39.0486C47.4741 31.254 58.1117 26.8762 69.2005 26.8614C80.2894 26.8465 90.9387 31.1959 98.8467 38.9693C106.755 46.7427 111.286 57.3158 111.462 68.4032C111.637 79.4907 107.442 90.2019 99.7844 98.2216C99.6901 98.3207 99.5942 98.4214 99.4951 98.5205C94.1841 103.964 87.856 108.311 80.8698 111.316C80.0175 111.683 79.1539 112.029 78.2791 112.353L77.6894 112.569L77.5679 112.613C73.4586 114.081 69.197 115.08 64.8639 115.594C64.6354 115.62 64.4084 115.647 64.1799 115.671L63.4959 115.739L62.8566 115.797C62.4091 115.834 61.9616 115.866 61.5141 115.893L61.1945 115.91C60.8226 115.932 60.4497 115.949 60.0757 115.962L59.5707 115.978C59.2718 115.986 58.9714 115.992 58.6709 115.994C69.7666 115.808 80.3429 111.261 88.1108 103.336C95.8786 95.4106 100.213 84.7452 100.176 73.6481C100.139 62.551 95.7329 51.9149 87.9121 44.042C80.0913 36.1691 69.4847 31.6927 58.3881 31.5818H57.6401C57.4531 31.5818 57.2661 31.5898 57.0807 31.5962L56.7707 31.609C56.2486 31.6324 55.7308 31.6719 55.2172 31.7273C55.1149 31.7369 55.0111 31.748 54.9088 31.7624C53.5627 31.9185 52.231 32.1804 50.9261 32.5455C50.5217 32.6558 50.127 32.7789 49.7242 32.9099C49.6236 32.9419 49.5245 32.9755 49.4254 33.0106L49.1697 33.1001C48.7605 33.2461 48.3541 33.4016 47.9503 33.5668L47.8671 33.602L47.5747 33.7266C47.4772 33.7666 47.3813 33.8097 47.2854 33.8529C47.1895 33.896 47.0936 33.9376 46.9993 33.9823C46.8075 34.0686 46.6174 34.1581 46.4288 34.2524C44.5506 35.1678 42.789 36.3053 41.1819 37.6406C40.923 37.8372 40.6881 38.0401 40.4547 38.2495Z" fill="url(#paint4_linear_1682_13282)"/>
<path d="M84.4155 58.3736C84.3046 69.4702 79.8283 80.0768 71.9553 87.8976C64.0824 95.7184 53.4463 100.124 42.3492 100.161C31.2521 100.199 20.5867 95.8641 12.6616 88.0963C4.7364 80.3284 0.18906 69.7521 0.00378829 58.6564C0.00378829 58.6261 0.00378829 58.5957 0.00378829 58.5654C-0.00473541 57.8568 0.00112473 57.1494 0.0213685 56.443C0.0213685 56.2735 0.0309586 56.1057 0.0373514 55.9379C0.0501369 55.5639 0.0671831 55.191 0.0884923 54.8192C0.0884923 54.7105 0.0996797 54.6018 0.106073 54.4996C0.118858 54.2822 0.133242 54.0648 0.149224 53.8459C0.160412 53.6861 0.171599 53.5342 0.184385 53.3776C0.184385 53.3041 0.195572 53.2306 0.201965 53.1571C0.221143 52.9429 0.238724 52.7288 0.2595 52.5178C0.280277 52.3068 0.304248 52.0623 0.328221 51.8338C0.352194 51.6052 0.379365 51.3783 0.404936 51.1497C0.918533 46.8166 1.91837 42.5551 3.38556 38.4457C3.39995 38.4057 3.41593 38.3658 3.43031 38.3242C3.50063 38.1271 3.57255 37.9306 3.64607 37.7345C3.96571 36.8651 4.31145 36.0015 4.68329 35.1438C7.44964 28.7105 11.3573 22.8308 16.2175 17.7891C8.67911 25.8308 4.58548 36.5022 4.81158 47.5224C5.03768 58.5426 9.56556 69.0372 17.4274 76.7629C25.2892 84.4887 35.8613 88.8326 46.8837 88.8663C57.9062 88.8999 68.5045 84.6206 76.4134 76.943C76.5029 76.8567 76.5908 76.7688 76.6787 76.6793C76.7666 76.5898 76.8561 76.5035 76.9424 76.414C77.2189 76.1295 77.489 75.8402 77.7415 75.5461C79.3396 73.7534 80.684 71.7498 81.7369 69.5913C81.8312 69.4027 81.9207 69.2125 82.007 69.0207C82.0518 68.9264 82.0949 68.8305 82.1365 68.7346C82.178 68.6388 82.2228 68.5429 82.2627 68.4454C82.3027 68.3479 82.3474 68.2504 82.3874 68.1529C82.3986 68.1241 82.4114 68.097 82.4226 68.0698C82.5888 67.666 82.7443 67.2595 82.8892 66.8504C82.9196 66.7657 82.95 66.681 82.9787 66.5947C83.0075 66.5084 83.0475 66.3965 83.0794 66.2958C83.2105 65.8995 83.3335 65.4967 83.4438 65.094C83.809 63.789 84.0708 62.4573 84.2269 61.1113C84.2413 61.009 84.2525 60.9051 84.2621 60.8028C84.318 60.2898 84.3564 59.772 84.3803 59.2494C84.3803 59.1455 84.3899 59.0432 84.3931 58.9393C84.4091 58.7475 84.4123 58.5606 84.4155 58.3736Z" fill="url(#paint5_linear_1682_13282)"/>
<path d="M98.2226 16.2176C98.3217 16.3119 98.4224 16.4078 98.5215 16.5069C103.965 21.8179 108.312 28.1461 111.317 35.1322C111.684 35.9846 112.03 36.8481 112.354 37.7229C112.427 37.92 112.499 38.1166 112.57 38.3126C112.584 38.3541 112.6 38.3941 112.614 38.4341C114.082 42.5434 115.081 46.805 115.595 51.1381C115.621 51.3666 115.648 51.5936 115.672 51.8221C115.696 52.0507 115.718 52.2792 115.74 52.5061C115.763 52.7331 115.779 52.9361 115.798 53.1454C115.798 53.2189 115.809 53.2925 115.816 53.366C115.828 53.5258 115.839 53.6856 115.851 53.8342C115.867 54.0532 115.881 54.2705 115.894 54.4879C115.894 54.5966 115.907 54.7053 115.911 54.8075C115.933 55.1805 115.95 55.5534 115.963 55.9263C115.963 56.0861 115.974 56.2619 115.979 56.4313C115.987 56.7302 115.993 57.0306 115.995 57.3311C115.809 46.2354 111.262 35.6591 103.337 27.8912C95.4116 20.1234 84.7462 15.789 73.6491 15.8262C62.552 15.8634 51.9159 20.2692 44.043 28.09C36.1701 35.9107 31.6937 46.5173 31.5828 57.614V57.6811C31.5828 57.8905 31.5828 58.0998 31.5828 58.3076V58.3683C31.5828 58.5553 31.5908 58.7423 31.5972 58.9277C31.5972 59.0316 31.6052 59.1354 31.61 59.2377C31.6334 59.7598 31.6728 60.2776 31.7282 60.7912C31.7378 60.8935 31.749 60.9973 31.7634 61.0996C31.9195 62.4457 32.1814 63.7774 32.5465 65.0823C32.6568 65.4867 32.7798 65.8814 32.9109 66.2842C32.9429 66.3848 32.9764 66.4839 33.0116 66.583C33.0467 66.6821 33.0707 66.754 33.1011 66.8387C33.2465 67.2479 33.4031 67.6554 33.5678 68.0582L33.6029 68.1413C33.6434 68.2382 33.685 68.3357 33.7276 68.4337C33.7675 68.5296 33.8107 68.6271 33.8538 68.723C33.897 68.8189 33.9385 68.9132 33.9833 69.0091C34.0696 69.2009 34.1591 69.3911 34.2534 69.5796C35.3063 71.7381 36.6507 73.7418 38.2489 75.5345C38.5078 75.8286 38.7779 76.1178 39.048 76.4023C31.3259 68.5002 27.01 57.8854 27.0269 46.8367C27.0438 35.788 31.3921 25.1865 39.1383 17.308C46.8845 9.4296 57.411 4.90248 68.4578 4.6986C79.5046 4.49472 90.191 8.63035 98.2226 16.2176Z" fill="url(#paint6_linear_1682_13282)"/>
<path d="M111.317 80.8693C108.551 87.3027 104.643 93.1823 99.783 98.2241C107.398 90.1962 111.556 79.4993 111.362 68.4362C111.168 57.3731 106.638 46.8285 98.7463 39.0724C90.855 31.3162 80.2337 26.9688 69.1689 26.966C58.1041 26.9632 47.4807 31.3053 39.5855 39.0574C39.496 39.1437 39.4081 39.2316 39.3202 39.3211C39.2323 39.4106 39.1428 39.4969 39.0565 39.5864C38.78 39.8709 38.5099 40.1602 38.2574 40.4542C36.6592 42.2469 35.3148 44.2506 34.2619 46.4091C34.1676 46.5977 34.0781 46.7879 33.9918 46.9796C33.947 47.0739 33.9039 47.1698 33.8623 47.2657C33.8208 47.3616 33.776 47.4575 33.7361 47.555C33.6961 47.6525 33.6514 47.75 33.6114 47.8475C33.6002 47.8762 33.5874 47.9034 33.5763 47.9306C33.41 48.3344 33.2545 48.7409 33.1096 49.15C33.0792 49.2347 33.0489 49.3194 33.0201 49.4057C32.9913 49.492 32.9514 49.6039 32.9194 49.7046C32.7884 50.1009 32.6653 50.5037 32.555 50.9064C32.1899 52.2114 31.928 53.543 31.7719 54.8891C31.7575 54.9914 31.7463 55.0953 31.7367 55.1975C31.6808 55.7106 31.6424 56.2284 31.6185 56.751C31.6185 56.8517 31.6089 56.954 31.6057 57.0546V57.0626C31.5977 57.248 31.5945 57.435 31.5913 57.622C31.7022 46.5254 36.1786 35.9188 44.0515 28.098C51.9244 20.2772 62.5605 15.8714 73.6576 15.8342C84.7547 15.797 95.4201 20.1314 103.345 27.8993C111.27 35.6671 115.818 46.2435 116.003 57.3391C116.003 57.3695 116.003 57.3999 116.003 57.4302C116.012 58.1388 116.006 58.8462 115.985 59.5526C115.985 59.722 115.976 59.8898 115.969 60.0577C115.957 60.4316 115.94 60.8045 115.918 61.1764C115.918 61.2851 115.907 61.3937 115.901 61.496C115.874 61.9435 115.842 62.391 115.805 62.8385C115.786 63.0527 115.768 63.2668 115.747 63.4778C115.727 63.6887 115.703 63.9333 115.679 64.1618C115.655 64.3904 115.627 64.6173 115.602 64.8458C115.088 69.179 114.088 73.4405 112.621 77.5499C112.607 77.5898 112.591 77.6298 112.576 77.6713C112.506 77.8674 112.434 78.064 112.361 78.2611C112.034 79.1379 111.686 80.0074 111.317 80.8693Z" fill="url(#paint7_linear_1682_13282)"/>
</g>
<defs>
<linearGradient id="paint0_linear_1682_13282" x1="85.8246" y1="52.258" x2="12.2327" y2="94.746" gradientUnits="userSpaceOnUse">
<stop offset="0.24" stop-color="#FFDC00"/>
<stop offset="0.73" stop-color="#FF8100"/>
</linearGradient>
<linearGradient id="paint1_linear_1682_13282" x1="97.9595" y1="15.7607" x2="19.9773" y2="60.785" gradientUnits="userSpaceOnUse">
<stop offset="0.49" stop-color="#FFDC00"/>
<stop offset="0.99" stop-color="#FF8100"/>
</linearGradient>
<linearGradient id="paint2_linear_1682_13282" x1="74.8586" y1="30.3443" x2="10.135" y2="67.7133" gradientUnits="userSpaceOnUse">
<stop offset="0.6" stop-color="#FFDC00"/>
<stop offset="1" stop-color="#FF8100"/>
</linearGradient>
<linearGradient id="paint3_linear_1682_13282" x1="96.0231" y1="55.2163" x2="18.041" y2="100.241" gradientUnits="userSpaceOnUse">
<stop stop-color="#FFDC00"/>
<stop offset="0.56" stop-color="#FF8100"/>
</linearGradient>
<linearGradient id="paint4_linear_1682_13282" x1="57578.8" y1="39087.3" x2="25680.4" y2="53939.4" gradientUnits="userSpaceOnUse">
<stop stop-color="#FFDC00"/>
<stop offset="0.56" stop-color="#FF8100"/>
</linearGradient>
<linearGradient id="paint5_linear_1682_13282" x1="72.298" y1="37.3861" x2="4.24378" y2="76.676" gradientUnits="userSpaceOnUse">
<stop offset="0.26" stop-color="#FFDC00"/>
<stop offset="1" stop-color="#FF8100"/>
</linearGradient>
<linearGradient id="paint6_linear_1682_13282" x1="70077.5" y1="19300.7" x2="33976.8" y2="45158.8" gradientUnits="userSpaceOnUse">
<stop offset="0.49" stop-color="#FFDC00"/>
<stop offset="0.99" stop-color="#FF8100"/>
</linearGradient>
<linearGradient id="paint7_linear_1682_13282" x1="111.755" y1="39.3243" x2="43.7008" y2="78.6143" gradientUnits="userSpaceOnUse">
<stop stop-color="#FFDC00"/>
<stop offset="0.71" stop-color="#FF8100"/>
</linearGradient>
<clipPath id="clip0_1682_13282">
<rect width="116" height="116" fill="white"/>
</clipPath>
</defs>
</svg>
