<svg width="605" height="48" viewBox="0 0 605 48" fill="none" xmlns="http://www.w3.org/2000/svg">
<path d="M84.6577 2H65.3977L55.5577 25.94H54.6577L53.3977 2H34.4377L24.4177 25.94H23.5177L22.4377 2H4.97773L9.17773 44H29.8777L39.5977 23.42H40.7377L42.5977 44H64.4377L84.6577 2ZM41.2777 22.88H39.2377L29.5177 43.4H9.65773L5.57773 2.6H21.8977L22.9777 26.48H24.8377L34.7977 2.6H52.9177L54.1177 26.48H55.9177L65.8177 2.6H83.7577L64.0777 43.4H43.1377L41.2777 22.88ZM121.386 31.04H99.9062L100.326 28.94H119.946L122.106 17.06H102.486L102.906 14.96H124.386L126.786 2H88.9262L81.1262 44H118.986L121.386 31.04ZM89.4062 2.6H126.126L123.906 14.42H102.426L101.826 17.66H121.446L119.466 28.34H99.8462L99.2462 31.58H120.726L118.506 43.4H81.8462L89.4062 2.6ZM152.344 44C161.164 44 166.444 40.1 168.124 32.42C169.144 27.5 166.864 23.06 162.724 21.98C165.484 21.2 169.624 18.02 170.344 12.92C170.764 9.8 170.224 7.28 168.604 5.48C166.624 3.2 163.144 2 158.284 2H131.524L123.724 44H152.344ZM132.004 2.6H158.284C163.024 2.6 166.324 3.68 168.184 5.84C169.684 7.52 170.224 9.86 169.804 12.8C169.084 17.78 165.064 20.84 162.244 21.5L162.064 22.4C166.324 23.3 168.544 27.56 167.524 32.3C165.964 39.68 160.864 43.4 152.344 43.4H124.384L132.004 2.6ZM148.864 33.38C151.444 33.38 152.644 32.48 153.064 30.32C153.244 29.48 153.064 28.76 152.644 28.22C151.804 27.2 150.244 27.14 149.584 27.14H140.944L139.804 33.38H148.864ZM141.424 27.68H149.584C150.124 27.68 151.564 27.74 152.224 28.58C152.524 29 152.644 29.54 152.524 30.2C152.164 32.12 151.144 32.84 148.864 32.84H140.464L141.424 27.68ZM150.304 17.48C152.404 17.48 153.424 16.7 153.784 14.84C153.964 14 153.844 13.4 153.484 12.92C153.004 12.38 152.164 12.14 150.784 12.14H143.704L142.744 17.48H150.304ZM144.184 12.68H150.784C151.984 12.68 152.704 12.86 153.004 13.28C153.304 13.64 153.364 14.12 153.244 14.72C152.944 16.28 152.104 16.88 150.304 16.88H143.404L144.184 12.68ZM186.86 45.14C194.48 45.14 203.54 43.76 206.12 33.14C207.02 29.48 206.54 26.48 204.74 24.32C201.8 20.72 196.16 20.3 193.7 20.36L205.46 15.2L207.92 2H176.96L174.62 14.42H188.66L178.64 19.64L177.2 27.2H185.9C187.82 27.2 188.96 27.5 189.44 28.1C189.86 28.52 189.92 29.24 189.74 30.26C189.38 32.24 188.42 33.38 187.22 33.38C186.56 33.38 186.14 33.2 185.84 32.9C185.42 32.36 185.36 31.22 185.66 29.66C185.24 29.66 175.76 29.66 170.84 29.66C170.06 33.8 170.78 37.1 172.94 39.74C175.76 43.1 180.98 45.14 186.86 45.14ZM185 30.26C184.76 31.58 184.94 32.66 185.42 33.26C185.78 33.68 186.38 33.92 187.22 33.92C188.72 33.92 189.86 32.66 190.28 30.38C190.52 29.18 190.4 28.34 189.92 27.74C189.26 26.96 188.06 26.6 185.9 26.6H177.92L179.12 20L189.32 14.72L189.44 13.88H175.34L177.44 2.6H207.26L204.98 14.78L192.86 20.12L192.68 20.96C194.9 20.84 201.2 20.84 204.32 24.68C206 26.72 206.42 29.54 205.58 32.96C203.06 43.16 194.72 44.54 186.86 44.54C181.1 44.54 176.06 42.62 173.36 39.38C171.38 36.92 170.66 33.86 171.26 30.26H185ZM243.461 31.16H262.541L264.821 18.8H245.741L246.221 16.1H268.721L271.361 2H232.481L224.681 44H241.061L243.461 31.16ZM232.961 2.6H270.641L268.241 15.56H245.741L245.081 19.34H264.161L262.061 30.62H242.981L240.581 43.4H225.401L232.961 2.6ZM294.015 45.14C308.355 45.14 319.095 37.16 321.375 24.86C322.575 18.44 321.315 12.74 317.775 8.48C313.755 3.62 307.035 0.859998 298.875 0.859998C283.575 0.859998 273.795 8.3 271.275 21.68C270.075 28.16 271.215 33.74 274.575 37.76C278.475 42.5 285.435 45.14 294.015 45.14ZM298.875 1.46C306.855 1.46 313.395 4.1 317.355 8.84C320.775 12.98 321.975 18.5 320.835 24.74C318.615 36.74 308.055 44.54 294.015 44.54C285.555 44.54 278.835 42.02 274.995 37.4C271.695 33.44 270.615 28.16 271.815 21.8C274.275 8.72 283.875 1.46 298.875 1.46ZM295.395 30.26C300.615 30.26 303.675 28.04 304.515 23.54C304.875 21.38 304.455 19.52 303.315 18.14C302.055 16.58 299.895 15.74 297.135 15.74C291.915 15.74 289.095 17.9 288.255 22.58C287.895 24.56 288.315 26.42 289.515 27.8C290.835 29.42 292.935 30.26 295.395 30.26ZM297.135 16.28C299.715 16.28 301.695 17.06 302.895 18.5C303.915 19.76 304.275 21.44 303.915 23.42C303.135 27.68 300.375 29.72 295.395 29.72C293.115 29.72 291.135 28.94 289.935 27.44C288.855 26.18 288.495 24.44 288.795 22.64C289.635 18.32 292.275 16.28 297.135 16.28ZM362.328 29.18C365.568 26.66 367.668 22.88 368.688 17.54C369.468 13.28 368.688 9.56 366.468 6.92C363.828 3.74 359.268 2 353.568 2H329.688L321.888 44H338.208L340.248 32.96L346.788 32.9L350.208 44H367.728L362.328 29.18ZM347.208 32.36H339.828L337.728 43.4H322.548L330.168 2.6H353.568C359.088 2.6 363.528 4.28 366.048 7.28C368.208 9.86 368.868 13.28 368.088 17.42C367.128 22.7 365.088 26.48 361.608 28.94L366.888 43.4H350.628L347.208 32.36ZM348.348 21.14C351.288 21.14 352.788 20.06 353.268 17.54C353.448 16.46 353.268 15.62 352.788 14.96C352.128 14.24 351.048 13.88 349.548 13.88H343.248L341.868 21.14H348.348ZM343.728 14.42H349.548C350.868 14.42 351.828 14.72 352.308 15.32C352.728 15.8 352.848 16.52 352.668 17.42C352.308 19.64 351.048 20.54 348.348 20.54H342.588L343.728 14.42ZM413.113 45.14C418.213 45.14 422.893 44 426.913 41.9L426.553 44H437.233L441.493 21.32H418.933L417.433 29.36H420.373L420.313 29.6C418.933 30.44 417.373 30.8 415.513 30.8C413.233 30.8 411.373 30.02 410.233 28.52C409.033 26.96 408.733 24.68 409.393 22.22C410.353 18.56 413.533 16.34 417.733 16.34C420.613 16.34 423.673 17.72 423.853 20.54L441.553 20.48C442.153 16.04 440.953 12.14 438.073 8.84C433.813 3.98 426.013 0.859998 417.793 0.859998C403.573 0.859998 393.673 8.72 391.213 21.8C390.073 27.62 391.333 32.96 394.873 37.16C398.953 42.14 405.793 45.14 413.113 45.14ZM417.793 1.46C425.893 1.46 433.513 4.46 437.653 9.2C440.353 12.32 441.493 15.98 441.073 19.94H424.393C423.973 17.24 420.793 15.8 417.733 15.8C413.233 15.8 409.933 18.14 408.853 22.1C408.133 24.74 408.493 27.14 409.813 28.88C411.013 30.5 413.053 31.4 415.513 31.4C417.553 31.4 419.233 30.92 420.853 29.96L421.033 28.82H418.093L419.413 21.86H440.773L436.753 43.4H427.213L427.693 40.82C423.073 43.4 418.333 44.54 413.113 44.54C405.973 44.54 399.313 41.66 395.293 36.8C391.873 32.72 390.673 27.56 391.753 21.92C394.153 9.14 403.873 1.46 417.793 1.46ZM467.569 45.14C481.909 45.14 492.649 37.16 494.929 24.86C496.129 18.44 494.869 12.74 491.329 8.48C487.309 3.62 480.589 0.859998 472.429 0.859998C457.129 0.859998 447.349 8.3 444.829 21.68C443.629 28.16 444.769 33.74 448.129 37.76C452.029 42.5 458.989 45.14 467.569 45.14ZM472.429 1.46C480.409 1.46 486.949 4.1 490.909 8.84C494.329 12.98 495.529 18.5 494.389 24.74C492.169 36.74 481.609 44.54 467.569 44.54C459.109 44.54 452.389 42.02 448.549 37.4C445.249 33.44 444.169 28.16 445.369 21.8C447.829 8.72 457.429 1.46 472.429 1.46ZM468.949 30.26C474.169 30.26 477.229 28.04 478.069 23.54C478.429 21.38 478.009 19.52 476.869 18.14C475.609 16.58 473.449 15.74 470.689 15.74C465.469 15.74 462.649 17.9 461.809 22.58C461.449 24.56 461.869 26.42 463.069 27.8C464.389 29.42 466.489 30.26 468.949 30.26ZM470.689 16.28C473.269 16.28 475.249 17.06 476.449 18.5C477.469 19.76 477.829 21.44 477.469 23.42C476.689 27.68 473.929 29.72 468.949 29.72C466.669 29.72 464.689 28.94 463.489 27.44C462.409 26.18 462.049 24.44 462.349 22.64C463.189 18.32 465.829 16.28 470.689 16.28ZM521.183 45.14C535.523 45.14 546.263 37.16 548.543 24.86C549.743 18.44 548.483 12.74 544.943 8.48C540.923 3.62 534.203 0.859998 526.043 0.859998C510.743 0.859998 500.963 8.3 498.443 21.68C497.243 28.16 498.383 33.74 501.743 37.76C505.643 42.5 512.603 45.14 521.183 45.14ZM526.043 1.46C534.023 1.46 540.563 4.1 544.523 8.84C547.943 12.98 549.143 18.5 548.003 24.74C545.783 36.74 535.223 44.54 521.183 44.54C512.723 44.54 506.003 42.02 502.163 37.4C498.863 33.44 497.783 28.16 498.983 21.8C501.443 8.72 511.043 1.46 526.043 1.46ZM522.563 30.26C527.783 30.26 530.843 28.04 531.683 23.54C532.043 21.38 531.623 19.52 530.483 18.14C529.223 16.58 527.063 15.74 524.303 15.74C519.083 15.74 516.263 17.9 515.423 22.58C515.063 24.56 515.483 26.42 516.683 27.8C518.003 29.42 520.103 30.26 522.563 30.26ZM524.303 16.28C526.883 16.28 528.863 17.06 530.063 18.5C531.083 19.76 531.443 21.44 531.083 23.42C530.303 27.68 527.543 29.72 522.563 29.72C520.283 29.72 518.303 28.94 517.103 27.44C516.023 26.18 515.663 24.44 515.963 22.64C516.803 18.32 519.443 16.28 524.303 16.28ZM572.576 44C588.296 44 596.456 37.76 599.036 23.72C600.296 17.06 599.336 11.78 596.216 8C592.916 4.04 587.276 2 579.536 2H556.916L549.116 44H572.576ZM557.336 2.6H579.536C587.096 2.6 592.616 4.52 595.796 8.36C598.796 12.02 599.696 17.12 598.496 23.66C595.976 37.34 587.936 43.4 572.576 43.4H549.776L557.336 2.6ZM573.716 29.84C578.876 29.84 581.816 27.62 582.656 23.06C583.076 20.9 582.776 19.16 581.816 18.02C580.856 16.82 579.056 16.16 576.536 16.16H570.056L567.476 29.84H573.716ZM570.536 16.76H576.536C578.876 16.76 580.496 17.3 581.396 18.38C582.236 19.4 582.476 20.96 582.116 22.94C581.336 27.26 578.636 29.24 573.716 29.24H568.196L570.536 16.76Z" fill="black"/>
<path d="M69.1177 4L59.0977 28.24H57.7777L56.5177 4H37.7377L27.5377 28.24H26.2177L25.0777 4H7.97773L12.1777 46H32.6977L42.5977 25.12H44.1577L46.0777 46H67.7977L88.0177 4H69.1177ZM127.386 16.6L129.726 4H91.9262L84.1262 46H121.866L124.206 33.46H102.426L102.966 30.7H122.826L124.986 19.3H105.066L105.546 16.6H127.386ZM173.344 14.74C174.424 7.42 169.744 4 161.404 4C159.664 4 134.524 4 134.524 4L126.724 46C126.724 46 153.304 46 155.404 46C161.704 46 169.084 43.96 171.124 34.54C172.144 29.56 169.804 25.12 165.544 24.16L165.664 23.74C168.544 23.08 172.624 19.78 173.344 14.74ZM155.884 32.38C155.464 34.6 154.144 35.26 151.864 35.26C150.244 35.26 143.344 35.26 142.984 35.26L144.064 29.44C144.424 29.44 151.024 29.44 152.584 29.44C154.204 29.44 156.304 30.1 155.884 32.38ZM156.604 16.66C156.244 18.4 155.344 19.12 153.304 19.12C151.984 19.12 146.284 19.12 145.984 19.12L146.884 14.26C147.184 14.26 152.464 14.26 153.844 14.26C155.824 14.26 156.964 14.86 156.604 16.66ZM196.1 22.6L196.16 22.24L208.46 16.9L210.86 4H180.02L177.8 16H192.14L192.08 16.42L181.76 21.76L180.44 28.96C180.44 28.96 185.18 28.96 188.9 28.96C192.62 28.96 193.46 30.04 193.04 32.38C192.62 34.66 191.54 35.8 190.16 35.8C188.42 35.8 187.82 34.36 188.3 32.02C188.3 32.02 178.64 32.02 173.84 32.02C171.8 42.82 181.46 47.14 189.86 47.14C197.18 47.14 206.42 46 209.06 35.2C211.7 24.34 201.86 22.36 196.1 22.6ZM271.721 17.74L274.301 4H235.481L227.681 46H243.701L246.101 32.98H265.481L267.701 20.98H248.321L248.921 17.74H271.721ZM301.875 2.86C285.735 2.86 276.555 10.9 274.155 23.74C271.275 39.16 281.715 47.14 296.955 47.14C312.615 47.14 322.395 37.96 324.435 26.8C327.195 11.98 316.815 2.86 301.875 2.86ZM307.275 25.48C306.435 30.04 303.375 32.08 298.395 32.08C293.355 32.08 290.655 28.54 291.375 24.58C292.155 20.5 294.495 17.92 300.075 17.92C305.715 17.92 308.055 21.28 307.275 25.48ZM371.748 19.42C373.608 9.28 366.708 4 356.688 4C356.508 4 332.688 4 332.688 4L324.888 46H340.908L343.008 34.78C344.388 34.78 348.288 34.78 350.028 34.78L353.508 46H370.668L365.208 31.12C368.748 28.6 370.788 24.7 371.748 19.42ZM346.488 16C348.888 16 351.648 16 352.668 16C355.008 16 356.568 16.96 356.088 19.42C355.608 21.94 354.048 22.78 351.408 22.78C350.328 22.78 347.388 22.78 345.228 22.78L346.488 16ZM420.793 17.98C423.973 17.98 427.033 19.54 427.273 22.18H444.673C446.233 10.6 434.053 2.86 420.793 2.86C406.213 2.86 396.493 11.2 394.153 23.86C391.393 38.38 403.753 47.14 416.053 47.14C421.813 47.14 426.553 45.76 430.453 43.6L430.033 46H440.293L444.493 23.56H422.233L420.793 31.18H423.793L423.673 31.9C422.293 32.68 420.613 33.22 418.513 33.22C413.293 33.22 410.653 29.26 412.033 24.16C413.053 20.26 416.353 17.98 420.793 17.98ZM475.429 2.86C459.289 2.86 450.109 10.9 447.709 23.74C444.829 39.16 455.269 47.14 470.509 47.14C486.169 47.14 495.949 37.96 497.989 26.8C500.749 11.98 490.369 2.86 475.429 2.86ZM480.829 25.48C479.989 30.04 476.929 32.08 471.949 32.08C466.909 32.08 464.209 28.54 464.929 24.58C465.709 20.5 468.049 17.92 473.629 17.92C479.269 17.92 481.609 21.28 480.829 25.48ZM529.043 2.86C512.903 2.86 503.723 10.9 501.323 23.74C498.443 39.16 508.883 47.14 524.123 47.14C539.783 47.14 549.563 37.96 551.603 26.8C554.363 11.98 543.983 2.86 529.043 2.86ZM534.443 25.48C533.603 30.04 530.543 32.08 525.563 32.08C520.523 32.08 517.823 28.54 518.543 24.58C519.323 20.5 521.663 17.92 527.243 17.92C532.883 17.92 535.223 21.28 534.443 25.48ZM582.596 4C582.356 4 559.856 4 559.856 4L552.056 46C552.056 46 575.276 46 575.516 46C589.976 46 599.276 40.96 602.096 25.72C604.496 12.94 598.916 4 582.596 4ZM585.476 25C584.696 29.32 581.996 31.66 576.656 31.66C575.576 31.66 573.116 31.66 570.716 31.66L573.176 18.4C575.336 18.4 578.216 18.4 579.536 18.4C584.876 18.4 586.196 21.16 585.476 25Z" fill="black"/>
</svg>
